
<svg height="512pt" viewBox="0 0 512 512" width="512pt" xmlns="http://www.w3.org/2000/svg"><path d="m416 512h-320c-53.023438 0-96-42.976562-96-96v-320c0-53.023438 42.976562-96 96-96h320c53.023438 0 96 42.976562 96 96v320c0 53.023438-42.976562 96-96 96zm0 0" fill="#f5e6fe"/><path d="m234.671875 384c19.3125 0 35.472656-13.761719 39.183594-32h-78.382813c3.726563 18.238281 19.871094 32 39.199219 32zm0 0" fill="#d9a4fc"/><path d="m315.472656 282.625c-.273437 0-.542968.046875-.816406.046875-47.054688 0-85.328125-38.289063-85.328125-85.328125 0-18.480469 5.96875-35.566406 16-49.550781v-9.121094c0-5.902344-4.769531-10.671875-10.65625-10.671875s-10.671875 4.769531-10.671875 10.671875v11.519531c-36.128906 5.199219-64 36.273438-64 73.808594v29.742188c0 21.105468-9.246094 41.027343-25.472656 54.753906-4.144532 3.550781-6.527344 8.71875-6.527344 14.175781 0 10.289063 8.367188 18.671875 18.671875 18.671875h176c10.289063 0 18.671875-8.367188 18.671875-18.671875 0-5.457031-2.382812-10.625-6.625-14.257813-8.429688-7.117187-14.910156-15.964843-19.246094-25.789062zm0 0" fill="#be63f9"/><path d="m314.671875 128c-38.222656 0-69.328125 31.105469-69.328125 69.328125s31.105469 69.328125 69.328125 69.328125 69.328125-31.089844 69.328125-69.328125-31.105469-69.328125-69.328125-69.328125zm10.65625 93.328125c0 4.414063-3.585937 8-8 8-4.417969 0-8-3.585937-8-8v-34.671875h-5.328125c-4.414062 0-8-3.585938-8-8 0-4.417969 3.585938-8 8-8h13.328125c4.414063 0 8 3.582031 8 8zm0 0" fill="#d9a4fc"/></svg>