<svg version="1.1" id="Layer_1" xmlns="http://www.w3.org/2000/svg" xmlns:xlink="http://www.w3.org/1999/xlink" x="0px" y="0px"
	 viewBox="0 0 512 512" style="enable-background:new 0 0 512 512;" xml:space="preserve">
<path style="fill:#FF7058;" d="M315.733,0H196.267c-11.733,0-21.333,9.6-21.333,21.333v469.333c0,11.733,9.6,21.333,21.333,21.333
	h119.467c11.733,0,21.333-9.6,21.333-21.333V21.333C337.067,9.6,327.467,0,315.733,0z"/>
<path style="fill:#84DBFF;" d="M140.8,0H21.333C9.6,0,0,9.6,0,21.333v469.333C0,502.4,9.6,512,21.333,512H140.8
	c11.733,0,21.333-9.6,21.333-21.333V21.333C162.133,9.6,152.533,0,140.8,0z"/>
<rect x="21.333" y="21.333" style="fill:#F2F2F2;" width="119.467" height="186.667"/>
<rect x="196.267" y="21.333" style="fill:#F1543F;" width="119.467" height="186.667"/>
<path style="fill:#FFD15C;" d="M490.667,0H371.2c-11.733,0-21.333,9.6-21.333,21.333v469.333c0,11.733,9.6,21.333,21.333,21.333
	h119.467C502.4,512,512,502.4,512,490.667V21.333C512,9.6,502.4,0,490.667,0z"/>
<rect x="371.2" y="21.333" style="fill:#F8B64C;" width="119.467" height="186.667"/>
<g>
	<rect x="33.067" y="46.933" style="fill:#CDD6E0;" width="96" height="26.667"/>
	<rect x="33.067" y="101.333" style="fill:#CDD6E0;" width="96" height="26.667"/>
	<rect x="33.067" y="155.733" style="fill:#CDD6E0;" width="67.2" height="26.667"/>
</g>
<g>
	<rect x="208" y="46.933" style="fill:#F2F2F2;" width="96" height="26.667"/>
	<rect x="208" y="101.333" style="fill:#F2F2F2;" width="96" height="26.667"/>
	<rect x="208" y="155.733" style="fill:#F2F2F2;" width="67.2" height="26.667"/>
	<rect x="382.933" y="46.933" style="fill:#F2F2F2;" width="96" height="26.667"/>
	<rect x="382.933" y="101.333" style="fill:#F2F2F2;" width="96" height="26.667"/>
	<rect x="382.933" y="155.733" style="fill:#F2F2F2;" width="67.2" height="26.667"/>
	<circle style="fill:#F2F2F2;" cx="81.067" cy="413.867" r="48"/>
</g>
<circle style="fill:#40596B;" cx="81.067" cy="413.867" r="36.267"/>
<circle style="fill:#F2F2F2;" cx="256" cy="413.867" r="48"/>
<circle style="fill:#40596B;" cx="256" cy="413.867" r="36.267"/>
<circle style="fill:#F2F2F2;" cx="430.933" cy="413.867" r="48"/>
<circle style="fill:#40596B;" cx="430.933" cy="413.867" r="36.267"/>
<g>
</g>
<g>
</g>
<g>
</g>
<g>
</g>
<g>
</g>
<g>
</g>
<g>
</g>
<g>
</g>
<g>
</g>
<g>
</g>
<g>
</g>
<g>
</g>
<g>
</g>
<g>
</g>
<g>
</g>
</svg>