<svg xmlns="http://www.w3.org/2000/svg">
    <symbol id="notification" viewBox="0 0 512 512">
        <g>
            <g>
                <path d="M467.812,431.851l-36.629-61.056c-16.917-28.181-25.856-60.459-25.856-93.312V224c0-67.52-45.056-124.629-106.667-143.04
			V42.667C298.66,19.136,279.524,0,255.993,0s-42.667,19.136-42.667,42.667V80.96C151.716,99.371,106.66,156.48,106.66,224v53.483
			c0,32.853-8.939,65.109-25.835,93.291l-36.629,61.056c-1.984,3.307-2.027,7.403-0.128,10.752c1.899,3.349,5.419,5.419,9.259,5.419
			H458.66c3.84,0,7.381-2.069,9.28-5.397C469.839,439.275,469.775,435.136,467.812,431.851z" />
            </g>
        </g>
        <g>
            <g>
                <path
                    d="M188.815,469.333C200.847,494.464,226.319,512,255.993,512s55.147-17.536,67.179-42.667H188.815z" />
            </g>
        </g>
    </symbol>
    <symbol id="three-dots" viewBox="0 0 992 992">
<g>
	<circle cx="144.3" cy="496" r="144.3"/>
	<circle cx="496" cy="496" r="144.3"/>
	<circle cx="847.7" cy="496" r="144.3"/>
</g>
    </symbol>
    <symbol id="user" viewBox="0 0 53 53">
        <path style="fill:#E7ECED;" d="M18.613,41.552l-7.907,4.313c-0.464,0.253-0.881,0.564-1.269,0.903C14.047,50.655,19.998,53,26.5,53
	c6.454,0,12.367-2.31,16.964-6.144c-0.424-0.358-0.884-0.68-1.394-0.934l-8.467-4.233c-1.094-0.547-1.785-1.665-1.785-2.888v-3.322
	c0.238-0.271,0.51-0.619,0.801-1.03c1.154-1.63,2.027-3.423,2.632-5.304c1.086-0.335,1.886-1.338,1.886-2.53v-3.546
	c0-0.78-0.347-1.477-0.886-1.965v-5.126c0,0,1.053-7.977-9.75-7.977s-9.75,7.977-9.75,7.977v5.126
	c-0.54,0.488-0.886,1.185-0.886,1.965v3.546c0,0.934,0.491,1.756,1.226,2.231c0.886,3.857,3.206,6.633,3.206,6.633v3.24
	C20.296,39.899,19.65,40.986,18.613,41.552z" />
        <g>
            <path style="fill:#556080;" d="M26.953,0.004C12.32-0.246,0.254,11.414,0.004,26.047C-0.138,34.344,3.56,41.801,9.448,46.76
		c0.385-0.336,0.798-0.644,1.257-0.894l7.907-4.313c1.037-0.566,1.683-1.653,1.683-2.835v-3.24c0,0-2.321-2.776-3.206-6.633
		c-0.734-0.475-1.226-1.296-1.226-2.231v-3.546c0-0.78,0.347-1.477,0.886-1.965v-5.126c0,0-1.053-7.977,9.75-7.977
		s9.75,7.977,9.75,7.977v5.126c0.54,0.488,0.886,1.185,0.886,1.965v3.546c0,1.192-0.8,2.195-1.886,2.53
		c-0.605,1.881-1.478,3.674-2.632,5.304c-0.291,0.411-0.563,0.759-0.801,1.03V38.8c0,1.223,0.691,2.342,1.785,2.888l8.467,4.233
		c0.508,0.254,0.967,0.575,1.39,0.932c5.71-4.762,9.399-11.882,9.536-19.9C53.246,12.32,41.587,0.254,26.953,0.004z" />
        </g>
    </symbol>
    <symbol id="arrow-down" viewBox="0 0 491.996 491.996">
        <g>
            <g>
                <path d="M484.132,124.986l-16.116-16.228c-5.072-5.068-11.82-7.86-19.032-7.86c-7.208,0-13.964,2.792-19.036,7.86l-183.84,183.848
			L62.056,108.554c-5.064-5.068-11.82-7.856-19.028-7.856s-13.968,2.788-19.036,7.856l-16.12,16.128
			c-10.496,10.488-10.496,27.572,0,38.06l219.136,219.924c5.064,5.064,11.812,8.632,19.084,8.632h0.084
			c7.212,0,13.96-3.572,19.024-8.632l218.932-219.328c5.072-5.064,7.856-12.016,7.864-19.224
			C491.996,136.902,489.204,130.046,484.132,124.986z" />
            </g>
        </g>
    </symbol>
    <symbol id="settings" viewBox="0 0 24 24">
        <path
            d="m22.683 9.394-1.88-.239c-.155-.477-.346-.937-.569-1.374l1.161-1.495c.47-.605.415-1.459-.122-1.979l-1.575-1.575c-.525-.542-1.379-.596-1.985-.127l-1.493 1.161c-.437-.223-.897-.414-1.375-.569l-.239-1.877c-.09-.753-.729-1.32-1.486-1.32h-2.24c-.757 0-1.396.567-1.486 1.317l-.239 1.88c-.478.155-.938.345-1.375.569l-1.494-1.161c-.604-.469-1.458-.415-1.979.122l-1.575 1.574c-.542.526-.597 1.38-.127 1.986l1.161 1.494c-.224.437-.414.897-.569 1.374l-1.877.239c-.753.09-1.32.729-1.32 1.486v2.24c0 .757.567 1.396 1.317 1.486l1.88.239c.155.477.346.937.569 1.374l-1.161 1.495c-.47.605-.415 1.459.122 1.979l1.575 1.575c.526.541 1.379.595 1.985.126l1.494-1.161c.437.224.897.415 1.374.569l.239 1.876c.09.755.729 1.322 1.486 1.322h2.24c.757 0 1.396-.567 1.486-1.317l.239-1.88c.477-.155.937-.346 1.374-.569l1.495 1.161c.605.47 1.459.415 1.979-.122l1.575-1.575c.542-.526.597-1.379.127-1.985l-1.161-1.494c.224-.437.415-.897.569-1.374l1.876-.239c.753-.09 1.32-.729 1.32-1.486v-2.24c.001-.757-.566-1.396-1.316-1.486zm-10.683 7.606c-2.757 0-5-2.243-5-5s2.243-5 5-5 5 2.243 5 5-2.243 5-5 5z" />
    </symbol>
    <symbol id="signout" viewBox="0 0 512.00533 512">
        <path
            d="m320 277.335938c-11.796875 0-21.332031 9.558593-21.332031 21.332031v85.335937c0 11.753906-9.558594 21.332032-21.335938 21.332032h-64v-320c0-18.21875-11.605469-34.496094-29.054687-40.554688l-6.316406-2.113281h99.371093c11.777344 0 21.335938 9.578125 21.335938 21.335937v64c0 11.773438 9.535156 21.332032 21.332031 21.332032s21.332031-9.558594 21.332031-21.332032v-64c0-35.285156-28.714843-63.99999975-64-63.99999975h-229.332031c-.8125 0-1.492188.36328175-2.28125.46874975-1.027344-.085937-2.007812-.46874975-3.050781-.46874975-23.53125 0-42.667969 19.13281275-42.667969 42.66406275v384c0 18.21875 11.605469 34.496093 29.054688 40.554687l128.386718 42.796875c4.351563 1.34375 8.679688 1.984375 13.226563 1.984375 23.53125 0 42.664062-19.136718 42.664062-42.667968v-21.332032h64c35.285157 0 64-28.714844 64-64v-85.335937c0-11.773438-9.535156-21.332031-21.332031-21.332031zm0 0" />
        <path
            d="m505.75 198.253906-85.335938-85.332031c-6.097656-6.101563-15.273437-7.9375-23.25-4.632813-7.957031 3.308594-13.164062 11.09375-13.164062 19.714844v64h-85.332031c-11.777344 0-21.335938 9.554688-21.335938 21.332032 0 11.777343 9.558594 21.332031 21.335938 21.332031h85.332031v64c0 8.621093 5.207031 16.40625 13.164062 19.714843 7.976563 3.304688 17.152344 1.46875 23.25-4.628906l85.335938-85.335937c8.339844-8.339844 8.339844-21.824219 0-30.164063zm0 0" />
    </symbol>
    <symbol id="search" viewBox="0 0 512.005 512.005">
        <g>
            <path
                d="M505.749,475.587l-145.6-145.6c28.203-34.837,45.184-79.104,45.184-127.317c0-111.744-90.923-202.667-202.667-202.667
			S0,90.925,0,202.669s90.923,202.667,202.667,202.667c48.213,0,92.48-16.981,127.317-45.184l145.6,145.6
			c4.16,4.16,9.621,6.251,15.083,6.251s10.923-2.091,15.083-6.251C514.091,497.411,514.091,483.928,505.749,475.587z
			 M202.667,362.669c-88.235,0-160-71.765-160-160s71.765-160,160-160s160,71.765,160,160S290.901,362.669,202.667,362.669z" />
        </g>
    </symbol>
    <symbol id="home" viewBox="0 0 512 512">
        <path
            d="m498.195312 222.695312c-.011718-.011718-.023437-.023437-.035156-.035156l-208.855468-208.847656c-8.902344-8.90625-20.738282-13.8125-33.328126-13.8125-12.589843 0-24.425781 4.902344-33.332031 13.808594l-208.746093 208.742187c-.070313.070313-.140626.144531-.210938.214844-18.28125 18.386719-18.25 48.21875.089844 66.558594 8.378906 8.382812 19.445312 13.238281 31.277344 13.746093.480468.046876.964843.070313 1.453124.070313h8.324219v153.699219c0 30.414062 24.746094 55.160156 55.167969 55.160156h81.710938c8.28125 0 15-6.714844 15-15v-120.5c0-13.878906 11.289062-25.167969 25.167968-25.167969h48.195313c13.878906 0 25.167969 11.289063 25.167969 25.167969v120.5c0 8.285156 6.714843 15 15 15h81.710937c30.421875 0 55.167969-24.746094 55.167969-55.160156v-153.699219h7.71875c12.585937 0 24.421875-4.902344 33.332031-13.808594 18.359375-18.371093 18.367187-48.253906.023437-66.636719zm0 0" />
    </symbol>
    <symbol id="friends" viewBox="0 0 512 512">
        <g>
            <g>
                <path d="M155.327,57.142c-51.531,0-93.454,44.45-93.454,99.086c0,54.636,41.923,99.086,93.454,99.086s93.455-44.45,93.455-99.086
			C248.782,101.592,206.859,57.142,155.327,57.142z" />
            </g>
        </g>
        <g>
            <g>
                <path d="M367.798,71.321c-0.211,0-0.425,0.001-0.636,0.002c-21.626,0.179-41.826,9.31-56.878,25.713
			c-14.788,16.113-22.829,37.37-22.644,59.854c0.186,22.484,8.577,43.605,23.628,59.473c15.17,15.991,35.265,24.773,56.651,24.773
			c0.215,0,0.43-0.001,0.646-0.002c21.626-0.179,41.826-9.311,56.878-25.713c14.788-16.113,22.829-37.37,22.644-59.855
			C447.702,108.972,411.747,71.321,367.798,71.321z" />
            </g>
        </g>
        <g>
            <g>
                <path
                    d="M371.74,257.358h-7.76c-36.14,0-69.12,13.74-94.02,36.26c6.23,4.78,12.16,9.99,17.78,15.61
			c16.58,16.58,29.6,35.9,38.7,57.42c8.2,19.38,12.88,39.8,13.97,60.83H512v-29.87C512,320.278,449.08,257.358,371.74,257.358z" />
            </g>
        </g>
        <g>
            <g>
                <path d="M310.35,427.478c-2.83-45.59-25.94-85.69-60.43-111.39c-25.09-18.7-56.21-29.77-89.92-29.77h-9.34
			C67.45,286.319,0,353.768,0,436.978v17.88h310.65v-17.88C310.65,433.788,310.55,430.618,310.35,427.478z" />
            </g>
        </g>
    </symbol>
    <symbol id="messages" viewBox="0 0 511.999 511.999">
        <g>
            <g>
                <path d="M113.304,396.177c-41.405-40.668-66.722-93.368-72.6-150.216c-22.006,27.818-33.938,61.937-33.883,97.745
			c0.037,23.29,5.279,46.441,15.212,67.376L1.551,470.689c-3.521,10.247-0.949,21.373,6.713,29.036
			c5.392,5.392,12.501,8.264,19.812,8.264c3.076,0,6.188-0.508,9.223-1.551l59.609-20.483c20.935,9.933,44.086,15.175,67.376,15.212
			c36.509,0.049,71.256-12.338,99.361-35.168C207.133,460.886,154.416,436.556,113.304,396.177z" />
            </g>
        </g>
        <g>
            <g>
                <path d="M510.156,401.842L480.419,315.3c14.334-29.302,21.909-61.89,21.96-94.679c0.088-57.013-21.97-110.92-62.112-151.79
			C400.117,27.952,346.615,4.942,289.615,4.039C230.51,3.104,174.954,25.586,133.187,67.352
			C91.42,109.119,68.934,164.674,69.87,223.782c0.903,56.999,23.913,110.502,64.79,150.652
			c40.79,40.064,94.56,62.116,151.451,62.114c0.112,0,0.23,0,0.34,0c32.79-0.051,65.378-7.626,94.68-21.96l86.544,29.738
			c3.606,1.239,7.304,1.843,10.959,1.843c8.688,0,17.136-3.412,23.545-9.822C511.284,427.241,514.34,414.021,510.156,401.842z
			 M307.004,295.328H195.331c-8.416,0-15.238-6.823-15.238-15.238c0-8.416,6.823-15.238,15.238-15.238h111.672
			c8.416,0,15.238,6.823,15.238,15.238C322.241,288.506,315.42,295.328,307.004,295.328z M376.892,232.659h-181.56
			c-8.416,0-15.238-6.823-15.238-15.238s6.823-15.238,15.238-15.238h181.56c8.416,0,15.238,6.823,15.238,15.238
			S385.308,232.659,376.892,232.659z M376.892,169.988h-181.56c-8.416,0-15.238-6.823-15.238-15.238
			c0-8.416,6.823-15.238,15.238-15.238h181.56c8.416,0,15.238,6.823,15.238,15.238C392.13,163.165,385.308,169.988,376.892,169.988z
			" />
            </g>
        </g>
    </symbol>
    <symbol id="groups" viewBox="0 0 80.13 80.13">
        <g>
            <path d="M48.355,17.922c3.705,2.323,6.303,6.254,6.776,10.817c1.511,0.706,3.188,1.112,4.966,1.112
		c6.491,0,11.752-5.261,11.752-11.751c0-6.491-5.261-11.752-11.752-11.752C53.668,6.35,48.453,11.517,48.355,17.922z M40.656,41.984
		c6.491,0,11.752-5.262,11.752-11.752s-5.262-11.751-11.752-11.751c-6.49,0-11.754,5.262-11.754,11.752S34.166,41.984,40.656,41.984
		z M45.641,42.785h-9.972c-8.297,0-15.047,6.751-15.047,15.048v12.195l0.031,0.191l0.84,0.263
		c7.918,2.474,14.797,3.299,20.459,3.299c11.059,0,17.469-3.153,17.864-3.354l0.785-0.397h0.084V57.833
		C60.688,49.536,53.938,42.785,45.641,42.785z M65.084,30.653h-9.895c-0.107,3.959-1.797,7.524-4.47,10.088
		c7.375,2.193,12.771,9.032,12.771,17.11v3.758c9.77-0.358,15.4-3.127,15.771-3.313l0.785-0.398h0.084V45.699
		C80.13,37.403,73.38,30.653,65.084,30.653z M20.035,29.853c2.299,0,4.438-0.671,6.25-1.814c0.576-3.757,2.59-7.04,5.467-9.276
		c0.012-0.22,0.033-0.438,0.033-0.66c0-6.491-5.262-11.752-11.75-11.752c-6.492,0-11.752,5.261-11.752,11.752
		C8.283,24.591,13.543,29.853,20.035,29.853z M30.589,40.741c-2.66-2.551-4.344-6.097-4.467-10.032
		c-0.367-0.027-0.73-0.056-1.104-0.056h-9.971C6.75,30.653,0,37.403,0,45.699v12.197l0.031,0.188l0.84,0.265
		c6.352,1.983,12.021,2.897,16.945,3.185v-3.683C17.818,49.773,23.212,42.936,30.589,40.741z" />
        </g>
    </symbol>
    <symbol id="news" viewBox="0 0 512.005 512.005">
        <g>
            <path
                d="m383 449.286c0-12.242 0-408.136 0-418 0-8.284-6.716-15-15-15h-353c-8.284 0-15 6.716-15 15v388c0 41.355 33.645 75 75 75h323.041c-9.438-12.545-15.041-28.13-15.041-45zm-303-145h48c8.284 0 15 6.716 15 15s-6.716 15-15 15h-48c-8.284 0-15-6.716-15-15s6.716-15 15-15zm-15-49c0-8.284 6.716-15 15-15h48c8.284 0 15 6.716 15 15s-6.716 15-15 15h-48c-8.284 0-15-6.716-15-15zm239 167h-224c-8.284 0-15-6.716-15-15s6.716-15 15-15h224c8.284 0 15 6.716 15 15s-6.716 15-15 15zm15-79c0 8.284-6.716 15-15 15h-112c-8.284 0-15-6.716-15-15v-112c0-8.284 6.716-15 15-15h112c8.284 0 15 6.716 15 15zm-15-161h-224c-8.284 0-15-6.716-15-15s6.716-15 15-15h224c8.284 0 15 6.716 15 15s-6.716 15-15 15zm0-64h-224c-8.284 0-15-6.716-15-15s6.716-15 15-15h224c8.284 0 15 6.716 15 15s-6.716 15-15 15z" />
            <path d="m207 246.286h82v82h-82z" />
            <path
                d="m497 120.286h-84c0 339.893-.05 329.01.09 329.01 1.294 20.941 15.606 38.347 34.94 44.246 30.926 9.437 62.634-12.935 63.92-45.352.078 0 .05 7.494.05-312.904 0-8.284-6.716-15-15-15z" />
        </g>
    </symbol>
    <symbol id="photos" viewBox="0 0 550.801 550.8">
        <g>
            <path d="M515.828,61.201H34.972C15.659,61.201,0,76.859,0,96.172v358.458C0,473.942,15.659,489.6,34.972,489.6h480.856
		c19.314,0,34.973-15.658,34.973-34.971V96.172C550.801,76.859,535.143,61.201,515.828,61.201z M515.828,96.172V350.51l-68.92-62.66
		c-10.359-9.416-26.289-9.04-36.186,0.866l-69.752,69.741L203.438,194.179c-10.396-12.415-29.438-12.537-39.99-0.271L34.972,343.219
		V96.172H515.828z M367.201,187.972c0-26.561,21.523-48.086,48.084-48.086c26.562,0,48.086,21.525,48.086,48.086
		c0,26.561-21.523,48.085-48.086,48.085C388.725,236.058,367.201,214.533,367.201,187.972z" />
        </g>
    </symbol>
    <symbol id="music" viewBox="0 0 512 512">
        <g>
            <path
                d="m182.179 159.75h30c0-31.002 4.415-66.799-24.143-95.356-8.968-8.968-17.455-16.07-24.942-22.336-19.799-16.57-27.833-24.012-27.833-42.058h-30v221.406c-10.734-7.199-23.634-11.406-37.5-11.406-37.22 0-67.5 30.28-67.5 67.5s30.28 67.5 67.5 67.5c37.448 0 68.135-30.713 67.468-68.75h.032v-218.469c9.458 8.262 20.077 16.341 31.562 27.825 19.029 19.031 15.356 44.009 15.356 74.144z" />
            <path
                d="m254.739 154.682v233.725c-10.733-7.199-23.633-11.406-37.5-11.406-37.22 0-67.5 30.28-67.5 67.5s30.28 67.5 67.5 67.5 67.5-30.28 67.5-67.5v-205.901c49.72-9.848 147.613-29.233 197-39.014v128.82c-10.733-7.199-23.633-11.406-37.5-11.406-37.22 0-67.5 30.28-67.5 67.5s30.28 67.5 67.5 67.5 67.5-30.28 67.5-67.5c0-16.537 0-268.158 0-280.766z" />
        </g>
    </symbol>
    <symbol id="videos" viewBox="0 0 512 512">
        <path d="m226 208.07v95.86l76.699-47.93z" />
        <path
            d="m75 451h362c41.353 0 75-33.647 75-75v-240c0-41.353-33.647-75-75-75h-362c-41.353 0-75 33.647-75 75v240c0 41.353 33.647 75 75 75zm121-270c0-5.449 2.959-10.474 7.734-13.125 4.717-2.637 10.591-2.505 15.22.41l120 75c4.38 2.739 7.046 7.544 7.046 12.715s-2.666 9.976-7.046 12.715l-120 75c-2.432 1.523-5.185 2.285-7.954 2.285-2.505 0-5.01-.63-7.266-1.875-4.775-2.651-7.734-7.676-7.734-13.125z" />
    </symbol>
    <symbol id="list" viewBox="0 0 60.123 60.123">
        <g>
            <path
                d="M57.124,51.893H16.92c-1.657,0-3-1.343-3-3s1.343-3,3-3h40.203c1.657,0,3,1.343,3,3S58.781,51.893,57.124,51.893z" />
            <path d="M57.124,33.062H16.92c-1.657,0-3-1.343-3-3s1.343-3,3-3h40.203c1.657,0,3,1.343,3,3
		C60.124,31.719,58.781,33.062,57.124,33.062z" />
            <path
                d="M57.124,14.231H16.92c-1.657,0-3-1.343-3-3s1.343-3,3-3h40.203c1.657,0,3,1.343,3,3S58.781,14.231,57.124,14.231z" />
            <circle cx="4.029" cy="11.463" r="4.029" />
            <circle cx="4.029" cy="30.062" r="4.029" />
            <circle cx="4.029" cy="48.661" r="4.029" />
        </g>
    </symbol>
    <symbol id="plate" viewBox="0 0 267.574 267.573">
        <g>
            <path d="M74.198,1.534H8.818C3.954,1.534,0,5.473,0,10.343v65.461c0,4.873,3.954,8.818,8.818,8.818h65.38
			c4.891,0,8.83-3.945,8.83-8.818V10.343C83.022,5.467,79.089,1.534,74.198,1.534z" />
            <path d="M74.198,91.474H8.818c-4.864,0-8.818,3.939-8.818,8.81v65.477c0,4.869,3.954,8.814,8.818,8.814h65.38
			c4.891,0,8.83-3.945,8.83-8.814v-65.477C83.022,95.413,79.089,91.474,74.198,91.474z" />
            <path d="M74.198,184.458H8.818c-4.864,0-8.818,3.939-8.818,8.81v65.482c0,4.869,3.954,8.814,8.818,8.814h65.38
			c4.891,0,8.83-3.945,8.83-8.814v-65.482C83.022,188.397,79.089,184.458,74.198,184.458z" />
            <path d="M166.483,0.009h-65.395c-4.864,0-8.818,3.945-8.818,8.815v65.47c0,4.87,3.954,8.815,8.818,8.815h65.395
			c4.864,0,8.821-3.945,8.821-8.815V8.818C175.292,3.948,171.347,0.009,166.483,0.009z" />
            <path d="M166.483,89.949h-65.395c-4.864,0-8.818,3.948-8.818,8.818v65.462c0,4.869,3.954,8.814,8.818,8.814h65.395
			c4.864,0,8.821-3.945,8.821-8.814V98.767C175.292,93.897,171.347,89.949,166.483,89.949z" />
            <path d="M166.483,182.939h-65.395c-4.864,0-8.818,3.944-8.818,8.814v65.465c0,4.875,3.954,8.814,8.818,8.814h65.395
			c4.864,0,8.821-3.939,8.821-8.814v-65.465C175.292,186.884,171.347,182.939,166.483,182.939z" />
            <path d="M258.747,0.015h-65.374c-4.864,0-8.821,3.948-8.821,8.818v65.461c0,4.876,3.957,8.815,8.821,8.815h65.38
			c4.864,0,8.821-3.939,8.821-8.815V8.833C267.562,3.954,263.611,0.015,258.747,0.015z" />
            <path d="M258.747,89.967h-65.374c-4.864,0-8.821,3.942-8.821,8.818v65.461c0,4.87,3.957,8.809,8.821,8.809h65.38
			c4.864,0,8.821-3.938,8.821-8.809V98.785C267.562,93.909,263.611,89.967,258.747,89.967z" />
            <path d="M258.747,182.945h-65.374c-4.864,0-8.821,3.945-8.821,8.82v65.465c0,4.869,3.957,8.809,8.821,8.809h65.38
			c4.864,0,8.821-3.939,8.821-8.809v-65.465C267.562,186.891,263.611,182.945,258.747,182.945z" />
        </g>
    </symbol>
    <symbol id="like" viewBox="0 0 512 512">
        <g>
            <path d="M474.644,74.27C449.391,45.616,414.358,29.836,376,29.836c-53.948,0-88.103,32.22-107.255,59.25
			c-4.969,7.014-9.196,14.047-12.745,20.665c-3.549-6.618-7.775-13.651-12.745-20.665c-19.152-27.03-53.307-59.25-107.255-59.25
			c-38.358,0-73.391,15.781-98.645,44.435C13.267,101.605,0,138.213,0,177.351c0,42.603,16.633,82.228,52.345,124.7
			c31.917,37.96,77.834,77.088,131.005,122.397c19.813,16.884,40.302,34.344,62.115,53.429l0.655,0.574
			c2.828,2.476,6.354,3.713,9.88,3.713s7.052-1.238,9.88-3.713l0.655-0.574c21.813-19.085,42.302-36.544,62.118-53.431
			c53.168-45.306,99.085-84.434,131.002-122.395C495.367,259.578,512,219.954,512,177.351
			C512,138.213,498.733,101.605,474.644,74.27z M309.193,401.614c-17.08,14.554-34.658,29.533-53.193,45.646
			c-18.534-16.111-36.113-31.091-53.196-45.648C98.745,312.939,30,254.358,30,177.351c0-31.83,10.605-61.394,29.862-83.245
			C79.34,72.007,106.379,59.836,136,59.836c41.129,0,67.716,25.338,82.776,46.594c13.509,19.064,20.558,38.282,22.962,45.659
			c2.011,6.175,7.768,10.354,14.262,10.354c6.494,0,12.251-4.179,14.262-10.354c2.404-7.377,9.453-26.595,22.962-45.66
			c15.06-21.255,41.647-46.593,82.776-46.593c29.621,0,56.66,12.171,76.137,34.27C471.395,115.957,482,145.521,482,177.351
			C482,254.358,413.255,312.939,309.193,401.614z" />
        </g>
    </symbol>
    <symbol id="share" viewBox="0 0 512 512.00004">
        <path
            d="m511.824219 255.863281-233.335938-255.863281v153.265625h-27.105469c-67.144531 0-130.273437 26.148437-177.753906 73.628906-47.480468 47.480469-73.628906 110.609375-73.628906 177.757813v107.347656l44.78125-49.066406c59.902344-65.628906 144.933594-103.59375 233.707031-104.457032v153.253907zm-481.820313 179.003907v-30.214844c0-59.132813 23.027344-114.730469 64.839844-156.542969s97.40625-64.839844 156.539062-64.839844h57.105469v-105.84375l162.734375 178.4375-162.734375 178.441407v-105.84375h-26.917969c-94.703124 0-185.773437 38.652343-251.566406 106.40625zm0 0" />
    </symbol>
    <symbol id="comment" viewBox="0 0 512 512">
        <path
            d="m69.191 260.253c0 16.144 13.134 29.277 29.276 29.277 16.144 0 29.277-13.133 29.277-29.277 0-16.143-13.134-29.276-29.277-29.276-16.142 0-29.276 13.133-29.276 29.276zm43.554 0c0 7.872-6.405 14.277-14.277 14.277s-14.276-6.405-14.276-14.277 6.404-14.276 14.276-14.276 14.277 6.404 14.277 14.276z" />
        <path
            d="m198.082 260.253c0-16.143-13.134-29.276-29.277-29.276s-29.276 13.133-29.276 29.276c0 16.144 13.134 29.277 29.276 29.277 16.143 0 29.277-13.133 29.277-29.277zm-43.554 0c0-7.872 6.404-14.276 14.276-14.276s14.277 6.404 14.277 14.276-6.405 14.277-14.277 14.277-14.276-6.405-14.276-14.277z" />
        <path
            d="m268.419 260.253c0-16.143-13.134-29.276-29.277-29.276s-29.276 13.133-29.276 29.276c0 16.144 13.134 29.277 29.276 29.277 16.143 0 29.277-13.133 29.277-29.277zm-43.554 0c0-7.872 6.404-14.276 14.276-14.276s14.277 6.404 14.277 14.276-6.405 14.277-14.277 14.277-14.276-6.405-14.276-14.277z" />
        <path
            d="m338.756 260.253c0-16.143-13.134-29.276-29.277-29.276s-29.276 13.133-29.276 29.276c0 16.144 13.134 29.277 29.276 29.277 16.143 0 29.277-13.133 29.277-29.277zm-43.554 0c0-7.872 6.404-14.276 14.276-14.276s14.277 6.404 14.277 14.276-6.405 14.277-14.277 14.277-14.276-6.405-14.276-14.277z" />
        <path
            d="m438.874 3.863h-276.72c-40.321 0-73.126 32.804-73.126 73.125v11.83h-15.903c-40.321.001-73.125 32.805-73.125 73.126v185.938c0 40.322 32.804 73.125 73.125 73.125h78.18c4.143 0 7.5-3.358 7.5-7.5s-3.357-7.5-7.5-7.5h-78.18c-32.05 0-58.125-26.075-58.125-58.125v-185.938c0-32.05 26.075-58.125 58.125-58.125h276.721c32.05 0 58.125 26.075 58.125 58.125v185.938c0 32.05-26.075 58.125-58.125 58.125-8.543 0-16.518 3.758-21.881 10.312-29.417 35.95-64.447 61.355-88.653 76.336-2.257 1.393-4.855-.96-3.669-3.382 9.512-19.408 16.805-39.761 21.675-60.494 2.728-11.618-6.129-22.772-18.109-22.772h-52.903c-4.143 0-7.5 3.358-7.5 7.5s3.357 7.5 7.5 7.5h52.903c2.301 0 4.027 2.128 3.506 4.342-4.612 19.638-11.523 38.924-20.541 57.323-7.776 15.872 10.025 32.025 25.032 22.738 25.178-15.583 61.642-42.04 92.368-79.591 2.503-3.058 6.247-4.812 10.272-4.812 40.321 0 73.125-32.804 73.125-73.125v-11.83h15.903c40.322 0 73.126-32.804 73.126-73.125v-75.469c0-4.142-3.357-7.5-7.5-7.5s-7.5 3.358-7.5 7.5v75.469c0 32.05-26.075 58.125-58.126 58.125h-15.903v-159.108c0-40.321-32.804-73.125-73.125-73.125h-245.818v-11.83c0-32.05 26.075-58.125 58.126-58.125h276.72c32.051 0 58.126 26.075 58.126 58.125v75.469c0 4.142 3.357 7.5 7.5 7.5s7.5-3.358 7.5-7.5v-75.469c0-40.322-32.804-73.126-73.126-73.126z" />
    </symbol>
    <symbol id="trash" viewBox="-47 0 512 512">
        <path d="m416.875 114.441406-11.304688-33.886718c-4.304687-12.90625-16.339843-21.578126-29.941406-21.578126h-95.011718v-30.933593c0-15.460938-12.570313-28.042969-28.027344-28.042969h-87.007813c-15.453125 0-28.027343 12.582031-28.027343 28.042969v30.933593h-95.007813c-13.605469 0-25.640625 8.671876-29.945313 21.578126l-11.304687 33.886718c-2.574219 7.714844-1.2695312 16.257813 3.484375 22.855469 4.753906 6.597656 12.445312 10.539063 20.578125 10.539063h11.816406l26.007813 321.605468c1.933594 23.863282 22.183594 42.558594 46.109375 42.558594h204.863281c23.921875 0 44.175781-18.695312 46.105469-42.5625l26.007812-321.601562h6.542969c8.132812 0 15.824219-3.941407 20.578125-10.535157 4.753906-6.597656 6.058594-15.144531 3.484375-22.859375zm-249.320312-84.441406h83.0625v28.976562h-83.0625zm162.804687 437.019531c-.679687 8.402344-7.796875 14.980469-16.203125 14.980469h-204.863281c-8.40625 0-15.523438-6.578125-16.203125-14.980469l-25.816406-319.183593h288.898437zm-298.566406-349.183593 9.269531-27.789063c.210938-.640625.808594-1.070313 1.484375-1.070313h333.082031c.675782 0 1.269532.429688 1.484375 1.070313l9.269531 27.789063zm0 0"/><path d="m282.515625 465.957031c.265625.015625.527344.019531.792969.019531 7.925781 0 14.550781-6.210937 14.964844-14.21875l14.085937-270.398437c.429687-8.273437-5.929687-15.332031-14.199219-15.761719-8.292968-.441406-15.328125 5.925782-15.761718 14.199219l-14.082032 270.398437c-.429687 8.273438 5.925782 15.332032 14.199219 15.761719zm0 0"/><path d="m120.566406 451.792969c.4375 7.996093 7.054688 14.183593 14.964844 14.183593.273438 0 .554688-.007812.832031-.023437 8.269531-.449219 14.609375-7.519531 14.160157-15.792969l-14.753907-270.398437c-.449219-8.273438-7.519531-14.613281-15.792969-14.160157-8.269531.449219-14.609374 7.519532-14.160156 15.792969zm0 0"/><path d="m209.253906 465.976562c8.285156 0 15-6.714843 15-15v-270.398437c0-8.285156-6.714844-15-15-15s-15 6.714844-15 15v270.398437c0 8.285157 6.714844 15 15 15zm0 0"/>
    </symbol>
</svg>